<svg width="505" height="463" viewBox="0 0 505 463" fill="none" xmlns="http://www.w3.org/2000/svg">
<path d="M504.5 157V248.5L479.5 261.5V364.5H458.5V273L383 315L396.5 408C302.5 421 240 462.5 240 462.5C168 409 86 411 86 411L100 313L0 259L3 160.5L247 0L504.5 157Z" fill="#383838"/>
<path d="M504.5 248.5L247 107L0 259L3 160.5L247 0L504.5 157V248.5Z" fill="#5C5C5C"/>
<path d="M504.5 248.5L247 107L130 179L197 218.5L94.5 288L39.5 258L146.5 190.5L128.5 180L0 259L97 311.5L121.5 288C121.5 288 165.5 249 206.5 236C247.5 223 279.5 237.5 279.5 237.5L164 179L246 130.5L465 248.5L377.5 296L395.5 308L504.5 248.5Z" fill="#D9D9D9"/>
<path d="M375 294C268.5 274 229.5 270.5 117.5 294C117.5 294 183 230.5 244.5 232.5C306 234.5 375 294 375 294Z" fill="#D9D9D9"/>
<path d="M100 313L86 411C94.5838 411.091 99.3567 411.443 107.5 412.2L117.5 324.5C168.5 302.5 218 326.5 240.5 348C286.9 302 341.833 321.5 364.5 332L375 411.5C383.374 409.996 388.079 409.217 396.5 408L383.5 314.5C299.5 273 240.5 333 240.5 333C184.9 282.6 125.667 298.333 100 313Z" fill="#D9D9D9"/>
<path d="M247 107V0L3 160.5L125 133.75L247 107Z" fill="#525252"/>
<path d="M106 147L108.5 109.5L218.5 39.5V76.5L106 147Z" fill="#D9D9D9"/>
<path d="M116 168V158L137.5 145V154L116 168Z" fill="#D9D9D9"/>
<path d="M155 143.5V134L177 120.5V130L155 143.5Z" fill="#D9D9D9"/>
<path d="M198 109.5C198.8 105.1 202 102 204.5 102C207 102 209.2 102.9 208 108.5C206.8 114.1 203.166 115.5 201.5 115.5C200 115.333 197.2 113.9 198 109.5Z" fill="#D9D9D9"/>
<path d="M18.4996 182.5C22.4996 171.3 31.4996 166.5 35.4996 165.5C43.4997 164.3 45.8329 172.333 45.9995 176.5C46.3328 181.167 44.6995 192.5 35.4996 200.5C26.2997 208.5 20.333 205.167 18.4996 202.5C16.833 200.5 14.4996 193.7 18.4996 182.5Z" fill="#D9D9D9"/>
<path d="M321.5 276C261.9 259.2 194 269 167.5 276C195.387 260.689 212.979 257.119 246 255C290.5 255 321.5 276 321.5 276Z" fill="#383838"/>
<path d="M180.5 85.5V77L200.5 65V73.5L180.5 85.5Z" fill="#383838"/>
<path d="M25 184C27.4 178 32 175.833 34 175.5C36.5 175.667 40.5 178.3 36.5 187.5C32.5 196.7 27.1666 195.333 25 193.5C24 192.833 22.6 190 25 184Z" fill="#383838"/>
<path d="M480.175 381H459.175C439.675 400 440.175 418 439.175 425C438.375 430.6 440.509 431.333 441.675 431H449.675V452C449.675 454.4 451.342 455.333 452.175 455.5C454.175 455.833 458.775 456.3 461.175 455.5C463.575 454.7 464.175 452.833 464.175 452V431H475.675V452C477.175 455.5 479.175 455.5 479.175 455.5C481.009 455.833 485.175 456.3 487.175 455.5C489.175 454.7 490.009 452.833 490.175 452V431H497.675C500.475 431 500.509 427 500.175 425C498.175 399.8 486.009 385.167 480.175 381Z" fill="#525252"/>
</svg>
